<svg width="72" height="36" viewBox="0 0 72 36" fill="none" xmlns="http://www.w3.org/2000/svg">
<path d="M0.66 0H6.446C7.81 0 8.85867 0.102667 9.592 0.308C10.34 0.498667 10.868 0.814 11.176 1.254C11.484 1.67933 11.638 2.28067 11.638 3.058V4.818C11.638 5.214 11.4767 5.588 11.154 5.94C10.846 6.292 10.4793 6.534 10.054 6.666V6.776C10.6113 6.83467 11.1173 7.07667 11.572 7.502C12.0413 7.91267 12.276 8.37467 12.276 8.888V11.088C12.276 12.2467 11.814 13.068 10.89 13.552C9.966 14.036 8.536 14.278 6.6 14.278H0.66V0ZM6.446 5.808C6.98867 5.808 7.392 5.764 7.656 5.676C7.92 5.588 8.096 5.44867 8.184 5.258C8.28667 5.05267 8.338 4.75933 8.338 4.378V3.674C8.338 3.33667 8.294 3.08733 8.206 2.926C8.118 2.75 7.93467 2.62533 7.656 2.552C7.392 2.47867 6.96667 2.442 6.38 2.442H4.092V5.808H6.446ZM6.534 11.836C7.37 11.836 7.964 11.7407 8.316 11.55C8.668 11.3593 8.844 11.0513 8.844 10.626V9.482C8.844 8.954 8.70467 8.58 8.426 8.36C8.162 8.14 7.68533 8.03 6.996 8.03H4.092V11.836H6.534Z" fill="#2B7FFF"/>
<path d="M19.8388 14.498C16.0695 14.498 14.1848 13.3467 14.1848 11.044V7.216C14.1848 5.88133 14.6102 4.91333 15.4608 4.312C16.3262 3.71067 17.6535 3.41 19.4428 3.41C21.1295 3.41 22.3615 3.70333 23.1388 4.29C23.9308 4.862 24.3268 5.83733 24.3268 7.216V9.812H17.4188V10.78C17.4188 11.396 17.6388 11.836 18.0788 12.1C18.5188 12.364 19.3108 12.496 20.4548 12.496C21.5108 12.496 22.6988 12.342 24.0188 12.034V14.08C22.7135 14.3587 21.3202 14.498 19.8388 14.498ZM21.2688 7.986V6.446C21.2688 6.094 21.1222 5.83 20.8288 5.654C20.5502 5.478 20.0735 5.39 19.3988 5.39C18.6215 5.39 18.1008 5.478 17.8368 5.654C17.5582 5.84467 17.4188 6.10867 17.4188 6.446V7.986H21.2688Z" fill="#2B7FFF"/>
<path d="M29.7959 14.498C28.7986 14.498 28.0506 14.41 27.5519 14.234C27.0679 14.0433 26.7232 13.7133 26.5179 13.244C26.3272 12.76 26.2319 12.0413 26.2319 11.088C26.2319 10.2373 26.3346 9.57 26.5399 9.086C26.7599 8.602 27.1046 8.25733 27.5739 8.052C28.0579 7.832 28.7179 7.722 29.5539 7.722H33.1619V6.996C33.1619 6.54133 33.0959 6.204 32.9639 5.984C32.8466 5.764 32.6192 5.61 32.2819 5.522C31.9592 5.434 31.4679 5.39 30.8079 5.39C29.8986 5.39 28.6519 5.478 27.0679 5.654V3.63C28.2266 3.48333 29.5832 3.41 31.1379 3.41C32.5019 3.41 33.5506 3.51267 34.2839 3.718C35.0319 3.92333 35.5672 4.27533 35.8899 4.774C36.2126 5.27267 36.3739 5.99867 36.3739 6.952V14.278H33.2279V13.31C32.9786 13.7353 32.6412 14.036 32.2159 14.212C31.7906 14.4027 30.9839 14.498 29.7959 14.498ZM31.0499 12.496C31.6952 12.496 32.1572 12.474 32.4359 12.43C32.6412 12.4007 32.7806 12.3567 32.8539 12.298C32.9419 12.2393 33.0152 12.144 33.0739 12.012C33.1326 11.9093 33.1619 11.7553 33.1619 11.55V9.482H30.9619C30.4632 9.482 30.1112 9.51867 29.9059 9.592C29.7006 9.65067 29.5612 9.78267 29.4879 9.988C29.4146 10.1787 29.3779 10.5233 29.3779 11.022C29.3779 11.506 29.4146 11.8433 29.4879 12.034C29.5612 12.2247 29.7006 12.3493 29.9059 12.408C30.1259 12.4667 30.5072 12.496 31.0499 12.496Z" fill="#2B7FFF"/>
<path d="M42.8959 14.498C41.5319 14.498 40.5712 14.256 40.0139 13.772C39.4712 13.2733 39.1999 12.496 39.1999 11.44V3.63H42.4119V11C42.4119 11.4107 42.4485 11.7187 42.5219 11.924C42.6099 12.1293 42.7712 12.276 43.0059 12.364C43.2552 12.452 43.6292 12.496 44.1279 12.496C44.7585 12.496 45.2205 12.4593 45.5139 12.386C45.8072 12.298 46.0052 12.1513 46.1079 11.946C46.2105 11.7407 46.2619 11.4253 46.2619 11V3.63H49.4739V14.278H46.3059V12.98C46.0712 13.992 44.9345 14.498 42.8959 14.498Z" fill="#2B7FFF"/>
<path d="M57.6079 14.498C57.0652 14.498 56.6105 14.476 56.2439 14.432C55.8772 14.388 55.5105 14.3 55.1439 14.168C54.7332 14.036 54.3959 13.8527 54.1319 13.618C53.8825 13.3833 53.6772 13.0607 53.5159 12.65C53.3399 12.2247 53.2519 11.7333 53.2519 11.176V5.61H51.0959V3.63H53.2519V0.550001H56.4639V3.63H59.3899V5.61H56.4639V10.626C56.4639 11.1393 56.5079 11.528 56.5959 11.792C56.6839 12.0413 56.8525 12.2247 57.1019 12.342C57.3512 12.4447 57.7325 12.496 58.2459 12.496C58.4512 12.496 58.8325 12.4593 59.3899 12.386V14.388C58.7005 14.4613 58.1065 14.498 57.6079 14.498Z" fill="#2B7FFF"/>
<path d="M64.2568 14.19L60.0108 3.63H63.5088L65.9068 11.154L68.0848 3.63H71.4068L65.5768 18.854H62.3208L64.2568 14.19Z" fill="#2B7FFF"/>
<path d="M0 33.188L7.436 23.442H0.22V21H11.66V23.068L4.224 32.814H11.792V35.278H0V33.188Z" fill="#2B7FFF"/>
<path d="M19.1027 35.498C18.4427 35.498 17.9 35.476 17.4747 35.432C17.0494 35.388 16.5947 35.3 16.1107 35.168C15.5827 35.0213 15.1574 34.816 14.8347 34.552C14.512 34.2733 14.2407 33.8847 14.0207 33.386C13.8007 32.902 13.6907 32.3153 13.6907 31.626V28.48C13.6907 27.776 13.8007 27.16 14.0207 26.632C14.2407 26.104 14.5267 25.6933 14.8787 25.4C15.1867 25.1507 15.59 24.9453 16.0887 24.784C16.602 24.608 17.1007 24.498 17.5847 24.454C18.142 24.4247 18.648 24.41 19.1027 24.41C19.7774 24.41 20.3127 24.432 20.7087 24.476C21.1194 24.5053 21.5667 24.5933 22.0507 24.74C22.5787 24.9013 23.004 25.1213 23.3267 25.4C23.664 25.6787 23.95 26.0747 24.1847 26.588C24.4047 27.116 24.5147 27.7467 24.5147 28.48V31.626C24.5147 32.286 24.4047 32.8653 24.1847 33.364C23.9794 33.8627 23.708 34.2513 23.3707 34.53C23.0774 34.7793 22.674 34.9847 22.1607 35.146C21.662 35.2927 21.1707 35.388 20.6867 35.432C20.2467 35.476 19.7187 35.498 19.1027 35.498ZM19.1027 33.496C19.704 33.496 20.1587 33.452 20.4667 33.364C20.7747 33.2613 20.9874 33.1073 21.1047 32.902C21.2367 32.6967 21.3027 32.396 21.3027 32V27.974C21.3027 27.3873 21.1487 26.9767 20.8407 26.742C20.5327 26.5073 19.9534 26.39 19.1027 26.39C18.252 26.39 17.6727 26.5073 17.3647 26.742C17.0567 26.9767 16.9027 27.3873 16.9027 27.974V32C16.9027 32.396 16.9614 32.6967 17.0787 32.902C17.2107 33.1073 17.4307 33.2613 17.7387 33.364C18.0467 33.452 18.5014 33.496 19.1027 33.496Z" fill="#2B7FFF"/>
<path d="M27.0182 24.63H30.1862V25.928C30.4356 24.916 31.5722 24.41 33.5962 24.41C34.9602 24.41 35.9136 24.6593 36.4562 25.158C37.0136 25.642 37.2922 26.412 37.2922 27.468V35.278H34.0802V27.886C34.0802 27.4753 34.0362 27.1673 33.9482 26.962C33.8749 26.7567 33.7136 26.61 33.4642 26.522C33.2296 26.434 32.8629 26.39 32.3642 26.39C31.7336 26.39 31.2716 26.434 30.9782 26.522C30.6849 26.5953 30.4869 26.7347 30.3842 26.94C30.2816 27.1453 30.2302 27.4607 30.2302 27.886V35.278H27.0182V24.63Z" fill="#2B7FFF"/>
<path d="M45.4482 35.498C41.6789 35.498 39.7942 34.3467 39.7942 32.044V28.216C39.7942 26.8813 40.2196 25.9133 41.0702 25.312C41.9356 24.7107 43.2629 24.41 45.0522 24.41C46.7389 24.41 47.9709 24.7033 48.7482 25.29C49.5402 25.862 49.9362 26.8373 49.9362 28.216V30.812H43.0282V31.78C43.0282 32.396 43.2482 32.836 43.6882 33.1C44.1282 33.364 44.9202 33.496 46.0642 33.496C47.1202 33.496 48.3082 33.342 49.6282 33.034V35.08C48.3229 35.3587 46.9296 35.498 45.4482 35.498ZM46.8782 28.986V27.446C46.8782 27.094 46.7316 26.83 46.4382 26.654C46.1596 26.478 45.6829 26.39 45.0082 26.39C44.2309 26.39 43.7102 26.478 43.4462 26.654C43.1676 26.8447 43.0282 27.1087 43.0282 27.446V28.986H46.8782Z" fill="#2B7FFF"/>
</svg>
